#N canvas 705 235 810 724 12;
#X obj 156 63 oscparse;
#X obj 156 39 netreceive -u -b 3000;
#X obj 156 87 list trim;
#X obj 156 111 route samples;
#X obj 120 150 unpack f f f f f f f f f f f f f f f f;
#X obj 83 395 * 220;
#X obj 83 443 sig~;
#X obj 83 491 osc~;
#X obj 70 554 dac~;
#X obj 148 396 * 220;
#X obj 148 420 + 440;
#X obj 148 444 sig~;
#X obj 148 492 osc~;
#X obj 148 468 lop~ 10;
#X obj 253 207 hsl 162 19 -3 3 0 0 empty empty empty -2 -10 0 12 #fcfcfc #000000 #000000 0 1;
#X obj 241 239 hsl 162 19 -3 3 0 0 empty empty empty -2 -10 0 12 #fcfcfc #000000 #000000 0 1;
#X obj 83 467 lop~ 1;
#X obj 83 419 + 440;
#X connect 0 0 2 0;
#X connect 1 0 0 0;
#X connect 2 0 3 0;
#X connect 3 0 4 0;
#X connect 4 0 5 0;
#X connect 4 0 14 0;
#X connect 4 1 9 0;
#X connect 4 1 15 0;
#X connect 5 0 17 0;
#X connect 6 0 16 0;
#X connect 7 0 8 0;
#X connect 7 0 8 1;
#X connect 9 0 10 0;
#X connect 10 0 11 0;
#X connect 11 0 13 0;
#X connect 13 0 12 0;
#X connect 15 0 9 0;
#X connect 16 0 7 0;
#X connect 17 0 6 0;
