#N canvas 891 184 610 568 12;
#X obj 49 49 oscparse;
#X obj 49 73 list trim;
#X obj 49 97 route samples mrt2;
#X obj 251 133 mrt2~;
#X obj 251 178 dac~;
#X obj 52 246 hsl 162 19 0 1 0 0 empty empty empty -2 -10 0 12 #fcfcfc #000000 #000000 0 1;
#X obj 49 144 unpack f;
#X obj 20 284 expr 1 - $f1;
#X obj 49 25 netreceive -u -b 3000;
#X obj 49 179 * 2;
#X msg 188 312 prompt 0 ambient \$1;
#X msg 20 312 prompt 1 synthwave \$1;
#X obj 251 97 r mrt;
#X obj 133 144 s mrt;
#X obj 156 402 s mrt;
#X obj 49 212 expr 1 / (1 + exp(-$f1));
#X connect 0 0 1 0;
#X connect 1 0 2 0;
#X connect 2 0 6 0;
#X connect 2 1 13 0;
#X connect 3 0 4 0;
#X connect 3 1 4 1;
#X connect 5 0 7 0;
#X connect 5 0 10 0;
#X connect 6 0 9 0;
#X connect 7 0 11 0;
#X connect 8 0 0 0;
#X connect 9 0 15 0;
#X connect 10 0 14 0;
#X connect 11 0 14 0;
#X connect 12 0 3 0;
#X connect 15 0 5 0;
